<svg version="1.2" baseProfile="tiny-ps" xmlns="http://www.w3.org/2000/svg" width="1375" height="244"><style>.shp0{fill:#fff}</style><g id="ThuisbezorgdNL"><g id="ThuisbezorgdNL_Full_Colour"><g id="ThuisbezorgdNL-2"><path id="Layer" fill-rule="evenodd" class="shp0" d="M980.88 128.48a40.087 40.087 0 015.46 6.16c.8 1.12 1.54 2.27 2.22 3.47.68 1.19 1.3 2.42 1.85 3.68 1.13 3.16 1.99 6.41 2.57 9.72.58 3.3.87 6.65.87 10.01 0 3.36-.29 6.71-.87 10.01-.58 3.31-1.44 6.56-2.57 9.72a40.776 40.776 0 01-4.08 7.15c-.8 1.11-1.66 2.19-2.57 3.22-.91 1.03-1.87 2.01-2.88 2.94-1.02.94-2.1 1.83-3.21 2.67a41.95 41.95 0 01-10.99 5.91c-2.8.99-5.67 1.73-8.59 2.23a52.605 52.605 0 01-17.7 0 52.14 52.14 0 01-8.59-2.23c-1.31-.47-2.6-1-3.86-1.6a43.25 43.25 0 01-7.14-4.31c-1.11-.84-2.18-1.73-3.21-2.67-1.01-.93-1.97-1.91-2.88-2.94a39.6 39.6 0 01-2.55-3.22 38.34 38.34 0 01-2.21-3.47c-.68-1.19-1.29-2.42-1.84-3.68a57.507 57.507 0 01-2.6-9.71c-.59-3.31-.88-6.66-.88-10.02 0-3.36.29-6.71.88-10.02.58-3.3 1.45-6.55 2.6-9.71.55-1.26 1.16-2.49 1.83-3.68.67-1.2 1.41-2.36 2.21-3.48.79-1.11 1.65-2.19 2.56-3.22.91-1.02 1.87-2 2.88-2.93a42.697 42.697 0 016.68-4.99 41.95 41.95 0 013.68-1.98c1.25-.6 2.54-1.14 3.85-1.61 2.8-.98 5.67-1.72 8.6-2.22 2.92-.49 5.88-.74 8.84-.74s5.92.25 8.84.74c2.93.5 5.8 1.24 8.6 2.22 1.31.47 2.59 1.01 3.85 1.61 1.26.6 2.48 1.26 3.68 1.98a41.864 41.864 0 016.67 4.99zm-11.81 32.94c0-6.16-1.74-13.43-5.19-17.16-1.99-1.8-4.3-3.21-6.8-4.17s-5.16-1.46-7.84-1.46c-2.68 0-5.34.5-7.84 1.46s-4.81 2.37-6.8 4.17c-3.47 3.82-5.19 10.99-5.19 17.16s1.72 13.44 5.19 17.17c1.99 1.8 4.29 3.22 6.79 4.19 2.51.96 5.17 1.46 7.85 1.46 2.68 0 5.34-.5 7.85-1.46 2.5-.97 4.8-2.39 6.79-4.19 3.45-3.82 5.19-11.01 5.19-17.17z"/><path id="Layer" class="shp0" d="M357.19 87.06c.46.02.92.12 1.34.3.43.19.82.45 1.15.77.33.33.6.71.79 1.13.19.42.3.88.33 1.34v15.73c-.03.46-.13.91-.32 1.33-.19.41-.46.79-.78 1.12-.33.32-.71.58-1.13.76-.42.19-.87.29-1.33.31h-28a2 2 0 00-.59.12c-.19.08-.37.18-.53.31a1.902 1.902 0 00-.64 1.01v89.15c-.02.46-.13.92-.32 1.34-.19.43-.45.82-.78 1.14-.33.33-.72.6-1.14.78-.43.19-.89.3-1.35.32h-18.6c-.48-.02-.95-.14-1.39-.33-.43-.2-.83-.48-1.16-.83a3.76 3.76 0 01-1.06-2.59v-88.55c0-.24-.05-.48-.15-.7-.09-.22-.22-.42-.39-.59-.17-.18-.37-.32-.59-.41-.21-.1-.45-.16-.69-.17h-27.9a3.81 3.81 0 01-1.37-.32c-.43-.2-.82-.47-1.15-.81-.33-.33-.59-.73-.78-1.17-.18-.43-.28-.9-.29-1.37V90.75c.01-.48.12-.94.3-1.38.19-.44.46-.84.79-1.18.34-.34.73-.61 1.16-.8.44-.2.9-.31 1.38-.33h85.29"/><path id="Layer" fill-rule="evenodd" class="shp0" d="M815.12 128.61c.84.97 1.63 1.97 2.37 3.02.74 1.04 1.42 2.13 2.05 3.24.63 1.12 1.21 2.26 1.72 3.43.52 1.18.98 2.37 1.37 3.59a52.375 52.375 0 012.04 8.56c.23 1.45.39 2.91.49 4.38.1 1.46.15 2.93.13 4.4v4c-.01.48-.11.95-.29 1.4-.18.44-.44.85-.78 1.19-.33.35-.72.63-1.16.83-.43.2-.9.32-1.38.35H769.6c-.22.03-.43.1-.62.21a1.808 1.808 0 00-.85.96c-.08.2-.13.42-.13.64.09 1.33.31 2.64.63 3.93a22.657 22.657 0 003.28 7.23c.75 1.09 1.6 2.12 2.54 3.06a18.242 18.242 0 005.71 3.26c1.04.37 2.12.64 3.21.81 1.08.17 2.19.25 3.29.22.9.03 1.81-.01 2.71-.11.9-.1 1.79-.27 2.66-.5.87-.23 1.73-.52 2.56-.88.83-.35 1.64-.77 2.41-1.24.49-.32.97-.66 1.44-1.01s.93-.72 1.37-1.1c.45-.38.88-.78 1.3-1.19.42-.41.83-.83 1.22-1.27.29-.29.63-.53.99-.71.37-.18.77-.29 1.17-.35.41-.05.82-.03 1.22.05s.79.22 1.14.43l.82.56 11.25 8.33c.32.34.56.74.73 1.18.17.44.26.9.26 1.37 0 .46-.09.92-.26 1.36-.17.44-.41.84-.73 1.18a39.865 39.865 0 01-5.76 4.88 39.65 39.65 0 01-3.2 2c-1.1.62-2.23 1.19-3.38 1.7a42.89 42.89 0 01-4.52 1.79c-1.53.51-3.1.95-4.68 1.29-1.59.35-3.19.61-4.8.78-1.61.18-3.23.26-4.85.26a50.383 50.383 0 01-8.84-.73c-1.46-.25-2.91-.56-4.34-.94-1.43-.38-2.85-.83-4.24-1.33-1.31-.47-2.6-1.01-3.86-1.6a43.25 43.25 0 01-7.14-4.31c-1.11-.84-2.18-1.73-3.21-2.67a39.952 39.952 0 01-5.44-6.16c-.79-1.12-1.53-2.28-2.21-3.47-.68-1.19-1.29-2.42-1.84-3.68a57.507 57.507 0 01-3.47-19.73 57.507 57.507 0 013.47-19.73c.55-1.26 1.16-2.48 1.84-3.67.68-1.2 1.42-2.35 2.21-3.47.8-1.11 1.65-2.19 2.56-3.22.91-1.02 1.87-2 2.88-2.93 1.02-.94 2.09-1.84 3.21-2.67 1.11-.84 2.27-1.62 3.46-2.34a41.95 41.95 0 013.68-1.98c1.26-.59 2.55-1.12 3.86-1.59a52 52 0 014.24-1.32c1.43-.38 2.88-.7 4.34-.95a50.383 50.383 0 018.84-.73c1.33-.02 2.67.03 3.99.15 1.33.12 2.65.31 3.96.56 1.31.25 2.61.57 3.88.95 1.28.38 2.54.83 3.77 1.34a31.883 31.883 0 016.46 3.6c1 .72 1.96 1.5 2.87 2.33.92.83 1.78 1.72 2.59 2.65m-16.63 21.54c.24 0 .47-.05.69-.14.22-.08.43-.21.6-.38a1.844 1.844 0 00.58-1.26c-.06-.84-.19-1.67-.4-2.49-.2-.81-.48-1.61-.83-2.38-.35-.76-.76-1.5-1.24-2.19s-1.02-1.34-1.61-1.94a14.59 14.59 0 00-2.34-1.95c-.84-.57-1.75-1.05-2.69-1.43a14.723 14.723 0 00-5.97-1.06c-1.15-.02-2.31.06-3.44.25a18.279 18.279 0 00-6.45 2.39c-.98.6-1.91 1.29-2.77 2.06a14.754 14.754 0 00-2.78 3.47c-.25.43-.48.87-.68 1.32a15.768 15.768 0 00-.72 1.93c-.1.33-.19.66-.27.99-.08.34-.15.67-.21 1.01.02.24.08.47.18.69.11.22.25.41.43.57.17.17.38.3.6.39.22.08.46.13.7.13h28.57l.05.02zM727.38 130c.79 1.02 1.54 2.07 2.25 3.16.7 1.08 1.36 2.2 1.96 3.34.61 1.14 1.16 2.31 1.67 3.5.5 1.19.95 2.4 1.35 3.63a65.78 65.78 0 011.94 9.31 67.064 67.064 0 01-.13 18.98c-.47 3.14-1.16 6.25-2.07 9.29a37.177 37.177 0 01-3.32 6.98c-.67 1.1-1.4 2.17-2.18 3.2a38.96 38.96 0 01-2.5 2.95c-.87.93-1.79 1.81-2.75 2.64-.97.82-1.97 1.6-3.02 2.32-1.05.72-2.13 1.39-3.25 2-1.12.6-2.26 1.15-3.44 1.63-1.28.52-2.59.98-3.91 1.37-1.33.4-2.67.72-4.03.98a40.608 40.608 0 01-8.25.72c-.69 0-1.37-.02-2.05-.07-.69-.04-1.37-.12-2.05-.21-.68-.1-1.35-.22-2.02-.37-.67-.14-1.33-.32-1.99-.51-.61-.19-1.21-.39-1.81-.61-.59-.22-1.19-.45-1.77-.7-.58-.25-1.16-.52-1.73-.8-.57-.28-1.14-.58-1.69-.89-.51-.28-1.01-.57-1.5-.88-.48-.31-.96-.64-1.43-.98a28.064 28.064 0 01-2.69-2.2c-.46-.46-1.01-.97-1.46-1.46l-.47-.47c-.06-.06-.12-.11-.19-.16-.07-.04-.15-.08-.22-.12-.08-.03-.16-.05-.24-.07a1.389 1.389 0 00-.71.06c-.15.06-.29.14-.41.24-.12.11-.22.23-.29.37-.08.14-.13.29-.15.45v3.78c-.03.47-.14.93-.33 1.37-.19.43-.46.82-.8 1.15-.33.34-.72.61-1.15.8-.44.19-.9.3-1.37.33h-15.56c-.48-.02-.95-.14-1.39-.33-.44-.2-.84-.48-1.17-.83-.34-.35-.6-.75-.78-1.2a3.73 3.73 0 01-.29-1.4V82.85c.01-.48.1-.95.28-1.39.18-.44.44-.84.77-1.18.33-.35.72-.63 1.15-.83.43-.2.9-.32 1.37-.35h17.57c.47.02.93.13 1.36.33.43.19.82.46 1.15.79.33.34.59.73.78 1.17.18.43.28.89.3 1.36v41.5c.01.17.05.34.11.5.07.15.17.29.3.41.12.12.26.22.42.28.16.06.33.1.5.1.08 0 .16 0 .25-.02.08-.01.16-.03.23-.06.08-.03.15-.07.22-.11.07-.05.14-.09.2-.15l.15-.15.49-.5c.02-.01.03-.03.05-.04l.04-.04c.02-.02.03-.03.05-.04.01-.02.03-.03.04-.05.58-.55 1.2-1.08 1.83-1.57.64-.48 1.31-.94 1.99-1.36.69-.42 1.4-.8 2.12-1.15.73-.34 1.47-.65 2.23-.92 1.16-.41 2.34-.76 3.53-1.07 1.19-.3 2.39-.55 3.6-.75 1.21-.2 2.43-.35 3.66-.44 1.22-.1 2.45-.13 3.68-.12 1.33-.03 2.65.02 3.97.16a32.343 32.343 0 017.74 1.76c1.25.45 2.47.97 3.65 1.57 1.11.58 2.19 1.21 3.23 1.9 1.05.7 2.05 1.44 3.02 2.24.96.8 1.88 1.65 2.76 2.55.87.89 1.7 1.84 2.47 2.82m-14.82 31.17c0-6.08-1.74-13.05-5.2-16.81-1.99-1.79-4.29-3.2-6.79-4.15a21.877 21.877 0 00-15.67 0c-2.5.95-4.8 2.36-6.79 4.15-3.48 3.76-5.19 10.76-5.19 16.81 0 6.05 1.71 13.64 5.19 17.4 1.99 1.79 4.29 3.2 6.79 4.15a21.877 21.877 0 0015.67 0c2.5-.95 4.8-2.36 6.79-4.15 3.46-3.76 5.2-11.32 5.2-17.4zm525.9-82.07c.49.02.96.13 1.41.32.44.2.84.48 1.18.83.34.35.6.76.79 1.21.18.45.27.93.27 1.42V200.3c0 .49-.1.97-.28 1.42-.19.45-.46.86-.79 1.21-.34.35-.75.64-1.19.84-.44.2-.92.31-1.41.33h-15.5c-.48-.02-.95-.13-1.39-.33-.44-.19-.84-.47-1.17-.82-.34-.34-.61-.75-.79-1.19-.18-.44-.28-.92-.29-1.4v-3.73a.762.762 0 00-.06-.2c-.02-.06-.05-.12-.08-.18-.04-.06-.07-.12-.11-.18-.05-.05-.09-.1-.14-.15a1.6 1.6 0 00-.44-.29c-.16-.07-.34-.1-.51-.1-.18 0-.36.03-.52.1a1.6 1.6 0 00-.44.29l-.41.43-1.5 1.5c-.43.39-.87.77-1.31 1.14-.45.36-.91.71-1.38 1.05-.47.34-.95.67-1.44.98-.49.31-.98.61-1.49.89-.56.31-1.14.61-1.72.9-.58.28-1.17.55-1.76.8-.6.25-1.2.48-1.81.7a33.17 33.17 0 01-3.8 1.11c-.66.15-1.33.27-2 .37-.67.09-1.34.17-2.01.21-.68.05-1.35.07-2.03.07a40.608 40.608 0 01-8.26-.72c-1.36-.26-2.71-.58-4.03-.98-1.33-.39-2.64-.85-3.92-1.37-1.18-.49-2.33-1.03-3.45-1.64a35.82 35.82 0 01-3.25-2c-1.05-.72-2.06-1.5-3.03-2.33-.97-.83-1.89-1.71-2.76-2.64a38.372 38.372 0 01-4.67-6.16c-.67-1.11-1.28-2.24-1.84-3.41-.56-1.16-1.05-2.35-1.49-3.57a66.87 66.87 0 01-2.07-9.28 66.942 66.942 0 01-.13-18.98 65.78 65.78 0 011.94-9.31c.4-1.23.86-2.44 1.36-3.63.51-1.19 1.07-2.36 1.68-3.5.61-1.14 1.26-2.26 1.97-3.34.7-1.09 1.45-2.14 2.25-3.16.78-.98 1.6-1.93 2.48-2.82.88-.9 1.8-1.75 2.77-2.54a35.254 35.254 0 016.25-4.15 34.5 34.5 0 013.68-1.62 33.04 33.04 0 017.82-1.8c1.34-.14 2.68-.19 4.02-.16 1.23-.01 2.46.03 3.68.12a43.587 43.587 0 017.26 1.19c1.19.31 2.36.66 3.52 1.07.76.27 1.5.58 2.22.93.73.34 1.43.73 2.12 1.15.68.42 1.35.87 1.99 1.36.63.49 1.25 1.01 1.83 1.56.1.13.34.24.34.36l.36.35v.1c.06.08.14.15.21.21.08.06.17.11.26.16.09.04.18.07.28.1.1.02.2.03.3.03.16 0 .32-.03.47-.09.15-.06.28-.14.4-.24.12-.11.22-.24.3-.38.07-.14.12-.29.14-.45V82.81c.01-.48.11-.95.29-1.4.19-.44.46-.84.79-1.18.34-.35.74-.62 1.18-.81.44-.2.91-.3 1.39-.32h17.43M1214 178.59c3.48-3.75 5.22-11.36 5.22-17.42 0-6.06-1.74-13.03-5.22-16.79-1.99-1.79-4.29-3.2-6.79-4.15a21.877 21.877 0 00-15.67 0c-2.5.95-4.8 2.36-6.79 4.15-3.48 3.79-5.19 10.72-5.19 16.79 0 6.07 1.71 13.67 5.19 17.42 1.99 1.79 4.29 3.2 6.79 4.15a21.877 21.877 0 0015.67 0c2.5-.95 4.8-2.36 6.79-4.15z"/><path id="Layer" class="shp0" d="M553.42 79.29c.95-.01 1.89.08 2.82.26.93.18 1.84.46 2.71.83.87.37 1.71.82 2.49 1.36.77.54 1.5 1.15 2.15 1.84a14.36 14.36 0 011.64 18.14c-3.84 5.66-11.15 7.82-17.46 5.16a14.36 14.36 0 015.65-27.59m8.52 39.75c.49 0 .97.1 1.42.28.45.18.86.45 1.21.78a3.883 3.883 0 011.17 2.59v77.76c-.02.48-.13.95-.33 1.39-.19.44-.47.84-.82 1.17-.34.33-.75.6-1.19.78-.44.18-.92.28-1.4.28h-17.23c-.48 0-.95-.1-1.4-.28-.44-.18-.84-.45-1.19-.78-.34-.33-.61-.73-.81-1.17-.19-.44-.3-.91-.31-1.39v-77.8c.02-.48.13-.96.32-1.4.2-.45.48-.85.83-1.19.35-.33.76-.6 1.21-.78.45-.18.93-.28 1.41-.28H562"/><path id="Layer" fill-rule="evenodd" class="shp0" d="M1143.13 119.01c.47.02.93.12 1.37.31.43.18.82.45 1.15.78.34.33.61.73.8 1.16.18.43.29.89.31 1.36v74.7c0 15.21-3.83 26.75-11.48 34.62-7.65 7.87-19.3 11.8-34.94 11.8-1.78 0-3.56-.05-5.33-.14a94.575 94.575 0 01-10.6-1.2c-1.75-.29-3.5-.64-5.23-1.04-1.45-.34-2.88-.75-4.29-1.22-1.41-.47-2.8-1.01-4.16-1.61a47.695 47.695 0 01-7.77-4.36c-.39-.29-.73-.64-.98-1.05-.26-.42-.44-.87-.52-1.35-.09-.48-.08-.96.02-1.44.09-.47.28-.93.55-1.33l9.66-14.44c.3-.35.66-.65 1.06-.87.41-.22.85-.37 1.3-.44.46-.06.92-.05 1.37.05.45.1.88.28 1.27.53.71.52 1.44 1.02 2.18 1.5.75.49 1.5.95 2.27 1.39.76.44 1.54.87 2.33 1.27.78.4 1.58.78 2.39 1.14a34.088 34.088 0 006.85 2.14c1.18.24 2.36.41 3.56.52 1.19.11 2.39.16 3.59.15 7.61 0 13.2-1.84 16.76-5.52a19.608 19.608 0 004.11-6.53c.46-1.21.79-2.46 1-3.74.21-1.28.3-2.58.25-3.87v-4.57c-.01-.17-.04-.34-.11-.49-.07-.16-.17-.3-.29-.42a1.3 1.3 0 00-.43-.27c-.16-.06-.33-.09-.5-.09-.09 0-.18.02-.28.04-.09.02-.17.05-.26.08-.09.04-.17.08-.24.14-.08.05-.15.11-.22.17l-.14.17c-.05.06-.1.11-.15.17-.05.05-.1.1-.15.16-.05.05-.11.1-.16.15l-.19.19c-.56.54-1.15 1.06-1.76 1.54-.61.49-1.25.94-1.91 1.36a22.785 22.785 0 01-4.18 2.1c-.95.38-1.92.71-2.91 1-.98.29-1.98.54-2.98.74-1.01.2-2.02.35-3.04.47-1.02.11-2.04.17-3.07.19a40.915 40.915 0 01-8.25-.72c-1.35-.25-2.7-.58-4.02-.97-1.33-.4-2.63-.86-3.91-1.38a34 34 0 01-3.45-1.64c-1.12-.6-2.2-1.27-3.25-1.99-1.05-.72-2.06-1.49-3.03-2.32a38.1 38.1 0 01-2.76-2.63c-.88-.95-1.71-1.94-2.49-2.97-.78-1.03-1.5-2.1-2.17-3.21-.68-1.1-1.29-2.24-1.85-3.4-.55-1.17-1.05-2.36-1.49-3.58a58.18 58.18 0 01-2.17-9.12c-.23-1.55-.41-3.1-.52-4.66a56.5 56.5 0 01-.14-4.69c0-1.56.06-3.12.17-4.68.1-1.56.27-3.11.48-4.66.21-1.54.48-3.08.79-4.61.32-1.53.69-3.05 1.11-4.55.4-1.21.86-2.41 1.37-3.58.51-1.17 1.07-2.32 1.68-3.45.61-1.12 1.28-2.21 1.98-3.28a45.37 45.37 0 012.27-3.09c.78-.96 1.62-1.88 2.5-2.76.87-.88 1.8-1.71 2.76-2.49.96-.79 1.97-1.52 3.01-2.2 1.03-.68 2.11-1.31 3.21-1.88 1.18-.6 2.4-1.14 3.65-1.59 1.25-.46 2.52-.83 3.82-1.13 1.29-.3 2.6-.52 3.92-.66 1.32-.14 2.65-.2 3.98-.18.81-.01 1.63.01 2.44.06.82.04 1.63.11 2.44.21a38.913 38.913 0 014.8.89c.68.17 1.35.37 2.02.58.67.21 1.33.45 1.98.7.65.25 1.3.52 1.94.8.64.29 1.27.6 1.89.92.54.27 1.07.56 1.6.86a30.355 30.355 0 013 2.03c.48.37.95.76 1.4 1.16.16.13.31.27.46.4l.45.42.43.43.42.45.25.28c.17.18.38.3.62.36.24.07.48.07.72 0 .24-.06.45-.19.62-.37.17-.17.28-.39.34-.63v-4c.02-.47.13-.93.32-1.36a3.761 3.761 0 011.95-1.92c.43-.19.89-.29 1.36-.31h15.53m-20.7 51.95a30.736 30.736 0 001.12-4.6 31.301 31.301 0 00.36-4.72c0-.89-.03-1.77-.09-2.66-.06-.88-.15-1.76-.28-2.64-.12-.88-.27-1.75-.46-2.61-.19-.87-.4-1.73-.65-2.58-.25-.59-.53-1.16-.84-1.72a20.732 20.732 0 00-2.15-3.15c-.41-.48-.85-.95-1.3-1.4-.47-.45-.95-.88-1.46-1.29-.5-.4-1.03-.79-1.57-1.15a21.733 21.733 0 00-3.41-1.85c-1.23-.54-2.51-.96-3.82-1.23a19.13 19.13 0 00-4-.42c-1.34 0-2.68.14-3.99.42-1.31.27-2.59.69-3.82 1.23-.58.26-1.15.55-1.7.86-.56.31-1.1.65-1.62 1.01-.53.36-1.03.74-1.52 1.14-.49.41-.97.83-1.42 1.28-.46.44-.89.91-1.31 1.4-.41.48-.79.99-1.15 1.52-.36.52-.7 1.07-1 1.63-.31.56-.58 1.13-.83 1.72-.25.85-.47 1.71-.66 2.58-.18.86-.34 1.73-.46 2.61-.13.88-.22 1.76-.28 2.64-.06.89-.09 1.77-.09 2.66 0 .79.03 1.58.09 2.37s.15 1.57.28 2.35c.12.78.28 1.56.46 2.32.19.77.41 1.53.66 2.28.25.59.52 1.17.83 1.73.3.56.64 1.1 1 1.63.36.53.74 1.04 1.16 1.53.41.49.84.95 1.3 1.4.45.45.93.87 1.42 1.28.49.4.99.78 1.52 1.14.52.36 1.06.7 1.62 1.01.55.31 1.12.6 1.7.86 1.23.54 2.51.96 3.82 1.23 1.31.28 2.65.42 3.99.42 1.35 0 2.69-.14 4-.42 1.31-.27 2.59-.69 3.82-1.23a21.733 21.733 0 003.41-1.85c.54-.36 1.07-.75 1.57-1.15.51-.41.99-.84 1.46-1.29a19.206 19.206 0 002.45-2.94c.36-.52.7-1.07 1-1.63.31-.56.59-1.13.84-1.72z"/><path id="Layer" class="shp0" d="M438.34 127.81c.57.92 1.08 1.86 1.55 2.83s.89 1.97 1.26 2.98.69 2.05.96 3.09c.26 1.05.47 2.1.63 3.17.2 1.24.37 2.48.52 3.73.15 1.25.27 2.49.36 3.75.1 1.25.17 2.5.21 3.76.04 1.25.06 2.5.05 3.76v45.48c0 .5-.1.99-.29 1.45-.19.46-.47.88-.83 1.23-.35.36-.77.64-1.23.83-.46.19-.95.29-1.45.29h-17.17c-.49-.01-.98-.11-1.44-.31-.45-.19-.86-.47-1.21-.82a3.868 3.868 0 01-1.1-2.67v-40.32c0-2.32-.11-4.7-.26-7.19-.03-.59-.09-1.17-.17-1.75-.08-.58-.18-1.16-.31-1.73-.12-.58-.27-1.15-.44-1.71-.17-.56-.36-1.11-.58-1.66a10.54 10.54 0 00-4.33-5.55 10.39 10.39 0 00-3.29-1.39c-1.16-.28-2.37-.35-3.56-.22-.67-.03-1.34-.01-2.01.04-.67.06-1.33.17-1.99.31-.65.15-1.3.33-1.93.56-.63.23-1.24.5-1.84.81-.47.27-.93.58-1.36.91-.44.34-.85.7-1.23 1.09-.38.4-.74.81-1.07 1.25-.33.44-.62.9-.89 1.38-.26.5-.51 1.01-.72 1.53-.22.53-.41 1.06-.58 1.6-.17.54-.31 1.08-.43 1.64-.11.55-.21 1.11-.27 1.67-.09.63-.16 1.26-.23 1.9-.06.63-.12 1.27-.16 1.9a61.008 61.008 0 00-.12 3.82v41c0 .5-.1.99-.29 1.44-.19.46-.46.88-.81 1.23-.35.35-.76.63-1.22.83-.46.19-.94.29-1.44.3h-17.17a3.99 3.99 0 01-1.44-.3 3.895 3.895 0 01-2.03-2.06c-.18-.46-.28-.95-.28-1.44V82.77c0-.48.1-.96.28-1.41.18-.45.45-.86.79-1.21.33-.34.74-.62 1.18-.82.44-.19.92-.3 1.4-.32h17.38c.49.01.98.11 1.43.3.45.2.86.47 1.21.82.34.35.62.76.81 1.21.19.45.29.94.3 1.43v42.98c.01.05.03.09.05.13.02.05.04.09.06.13.02.05.05.09.07.13.03.04.06.07.09.11.11.13.25.24.41.32.15.08.32.13.5.14.17.02.35 0 .52-.06.16-.05.32-.14.45-.25l.26-.35.47-.56c.01-.02.02-.03.03-.05.01-.02.03-.03.04-.05.01-.02.02-.03.04-.05l.04-.04c.35-.4.71-.79 1.08-1.17.38-.37.77-.73 1.17-1.08.4-.35.82-.68 1.25-.99.42-.32.86-.62 1.31-.9.51-.33 1.03-.64 1.56-.93.53-.29 1.08-.56 1.63-.81.55-.25 1.11-.48 1.68-.69a28.757 28.757 0 013.75-1.09c.68-.14 1.37-.27 2.06-.36.69-.1 1.38-.17 2.08-.22a29 29 0 012.09-.06c1.3-.05 2.6-.03 3.9.07 1.3.1 2.59.27 3.87.51 1.28.24 2.54.55 3.78.94 1.25.38 2.47.84 3.66 1.36.92.44 1.8.95 2.65 1.51.84.56 1.65 1.19 2.41 1.86.76.68 1.47 1.41 2.13 2.18.66.77 1.26 1.59 1.81 2.45m616.78-10.84c.46.01.92.11 1.34.29.43.18.82.44 1.15.76.33.32.6.7.8 1.12.19.42.31.87.34 1.33v14.72c-.03.47-.15.92-.35 1.35-.2.42-.47.8-.81 1.13-.34.32-.74.58-1.17.75-.43.18-.89.28-1.36.29h-9.12c-.77.01-1.54.06-2.31.14-.77.09-1.53.21-2.29.37a23.59 23.59 0 00-4.4 1.42c-.66.29-1.29.63-1.9 1.02-.6.38-1.18.81-1.72 1.28-.55.47-1.06.97-1.53 1.52-.46.54-.89 1.11-1.28 1.72-.39.65-.75 1.32-1.07 2.02-.32.69-.6 1.39-.84 2.12a20.43 20.43 0 00-.97 4.45 83.214 83.214 0 00-.53 5.44c-.05.91-.1 1.82-.12 2.73-.03.91-.04 1.82-.04 2.73v34.61c0 .49-.09.97-.28 1.42a3.78 3.78 0 01-1.98 2.02c-.45.19-.92.29-1.41.3h-17.42c-.46-.01-.91-.1-1.33-.28-.42-.17-.81-.41-1.14-.72-.34-.31-.62-.68-.82-1.09a3.9 3.9 0 01-.38-1.3v-78.27c.04-.46.17-.92.38-1.34a3.815 3.815 0 012.02-1.83c.44-.17.9-.25 1.37-.25h17.18c.49 0 .98.1 1.43.28.45.19.87.46 1.21.81.35.34.63.75.82 1.2.19.45.29.94.3 1.43v5.15c.03.15.09.29.17.42.09.13.19.25.31.35a1.412 1.412 0 00.85.3c.09 0 .19-.01.28-.03.09-.02.18-.05.26-.08.09-.04.17-.09.25-.14.07-.05.15-.11.21-.18l.23-.36.32-.45c.46-.68.94-1.34 1.46-1.98.52-.63 1.06-1.24 1.64-1.83.57-.59 1.17-1.15 1.79-1.68.62-.53 1.27-1.04 1.94-1.51a24.84 24.84 0 013.18-1.7c1.1-.48 2.23-.88 3.39-1.2 1.16-.31 2.35-.54 3.54-.67 1.2-.14 2.4-.19 3.6-.14h4.64m-424 40.8c.79.46 1.55.97 2.27 1.52.73.55 1.42 1.14 2.08 1.78.65.63 1.27 1.3 1.84 2.01.58.71 1.11 1.45 1.6 2.22a23.65 23.65 0 012.4 6.23c.26 1.09.44 2.19.53 3.3.1 1.12.13 2.23.07 3.35.04 1.18.01 2.36-.12 3.53-.12 1.17-.32 2.34-.6 3.48a24.89 24.89 0 01-1.1 3.36c-.44 1.09-.96 2.15-1.55 3.17-.54.87-1.13 1.7-1.76 2.5-.64.8-1.32 1.57-2.04 2.29s-1.49 1.4-2.29 2.04c-.8.63-1.63 1.22-2.5 1.76-.91.55-1.84 1.06-2.8 1.53a33 33 0 01-2.92 1.27c-.99.39-2 .72-3.02 1.01-1.02.3-2.06.54-3.1.74-1.07.22-2.14.4-3.22.57-1.08.16-2.16.29-3.25.4-1.08.11-2.17.2-3.26.25a56.443 56.443 0 01-7.58-.08c-1.43-.11-2.86-.27-4.28-.48-1.42-.21-2.84-.48-4.24-.79-1.4-.32-2.79-.68-4.17-1.1-1.08-.32-2.14-.69-3.18-1.12a31.057 31.057 0 01-5.9-3.24c-.93-.65-1.81-1.34-2.66-2.08-.37-.3-.67-.67-.9-1.09-.23-.42-.38-.87-.43-1.35-.06-.47-.03-.95.09-1.41.13-.46.34-.89.62-1.27l10.19-12c.32-.33.7-.59 1.11-.79.42-.19.87-.3 1.32-.34.46-.03.92.02 1.36.16.44.13.85.34 1.21.62.39.41.79.8 1.2 1.18.42.37.85.74 1.29 1.08.44.35.89.68 1.36.99.47.32.94.61 1.43.89.75.4 1.52.76 2.31 1.06.79.3 1.61.55 2.43.75a19.547 19.547 0 005.05.53 21.602 21.602 0 003.92-.3c.65-.11 1.29-.25 1.92-.42.64-.17 1.26-.36 1.88-.59.51-.15.99-.38 1.42-.69.44-.3.81-.68 1.12-1.11.31-.43.55-.91.7-1.41.15-.51.22-1.04.2-1.57.02-.51-.04-1.03-.17-1.53a5.62 5.62 0 00-.59-1.41c-.27-.44-.6-.84-.97-1.19-.38-.35-.81-.64-1.27-.87-.61-.31-1.24-.6-1.87-.87-.63-.28-1.27-.53-1.92-.76-.65-.23-1.3-.45-1.96-.64-.66-.19-1.33-.37-2-.52l-10-2.45c-.88-.23-1.74-.48-2.6-.76-.86-.29-1.71-.6-2.54-.95-.84-.34-1.66-.71-2.47-1.11-.81-.4-1.61-.83-2.39-1.28-.79-.44-1.55-.93-2.27-1.47-.73-.54-1.42-1.12-2.07-1.74-.65-.63-1.26-1.3-1.83-2-.57-.7-1.09-1.44-1.56-2.21-.55-.98-1.02-1.99-1.42-3.03-.41-1.04-.74-2.11-.99-3.2-.25-1.09-.43-2.19-.53-3.3-.1-1.12-.12-2.23-.06-3.35-.03-1.11.01-2.22.12-3.33a27.763 27.763 0 011.45-6.49c.37-1.04.8-2.07 1.3-3.06.45-.87.95-1.72 1.5-2.53.55-.81 1.14-1.6 1.78-2.35.63-.74 1.31-1.46 2.03-2.13.71-.67 1.46-1.3 2.25-1.89.8-.59 1.62-1.15 2.48-1.66.85-.51 1.72-.99 2.62-1.42.89-.43 1.81-.82 2.74-1.17.93-.34 1.88-.64 2.84-.9 1-.28 2.01-.52 3.03-.73 1.02-.2 2.04-.38 3.07-.52a46.463 46.463 0 016.22-.41c1.35 0 2.71.06 4.06.16 1.35.11 2.69.26 4.03.46 1.34.21 2.67.46 3.99.76 1.32.3 2.63.65 3.92 1.05 1.05.32 2.08.69 3.09 1.13 1.01.43 1.99.92 2.94 1.46.96.54 1.88 1.13 2.77 1.78.89.64 1.74 1.33 2.55 2.07.29.34.52.72.67 1.14a3.662 3.662 0 010 2.61c-.15.42-.38.8-.67 1.14l-10.13 10.73c-.34.3-.74.53-1.17.69-.42.16-.87.24-1.33.24-.46 0-.91-.08-1.33-.24a3.73 3.73 0 01-1.17-.69 17.077 17.077 0 00-5.51-3.43c-1.02-.38-2.07-.67-3.15-.86-1.07-.18-2.16-.26-3.25-.24-.53 0-1.06.04-1.59.11-.52.06-1.04.16-1.56.3-.51.13-1.02.29-1.51.49-.49.19-.97.42-1.44.67a5.676 5.676 0 00-2.28 2.28c-.26.48-.44.99-.56 1.53a5.87 5.87 0 00-.1 1.62c-.01.49.05.97.18 1.44.14.47.34.92.61 1.33.26.41.59.78.96 1.09.38.31.8.56 1.25.75.62.29 1.24.56 1.88.82.63.25 1.27.49 1.91.71.65.22 1.3.42 1.96.61.65.18 1.31.35 1.98.5l10 2.43c.88.21 1.75.46 2.61.74.86.28 1.71.59 2.55.94.84.34 1.66.72 2.47 1.12.8.41 1.6.85 2.37 1.32m-104.84-38.7a3.838 3.838 0 012.62 1.04c.35.33.63.72.83 1.16.21.44.32.91.35 1.39v77.69c0 .5-.1.99-.29 1.45-.2.46-.48.87-.83 1.22s-.77.63-1.23.82c-.46.19-.95.29-1.45.29h-16.2c-.5 0-.99-.1-1.45-.3-.45-.19-.87-.46-1.22-.81-.35-.35-.63-.77-.83-1.23-.19-.45-.29-.94-.3-1.44v-3.26c-.01-.17-.05-.34-.12-.49-.07-.16-.17-.3-.29-.42a1.47 1.47 0 00-.42-.28c-.16-.06-.33-.1-.5-.1-.08 0-.17.01-.25.03-.08.01-.16.04-.24.07-.08.04-.15.08-.22.13a.95.95 0 00-.19.16c-.39.53-.88 1.09-1.39 1.65-.39.41-.8.8-1.21 1.18-.42.39-.85.75-1.3 1.1-.44.36-.9.69-1.36 1.01-.47.33-.94.63-1.43.92-.53.32-1.08.62-1.63.9-.55.29-1.11.55-1.68.8-.56.25-1.14.49-1.72.7-.58.22-1.17.42-1.76.6-.67.19-1.34.37-2.02.51-.68.15-1.37.27-2.06.37-.69.09-1.38.17-2.07.21-.7.05-1.39.07-2.09.07-1.3.05-2.6.03-3.9-.06-1.3-.1-2.59-.27-3.87-.51-1.28-.24-2.54-.56-3.79-.94-1.24-.39-2.46-.85-3.65-1.37-.91-.44-1.8-.95-2.64-1.52-.85-.56-1.65-1.18-2.41-1.86-.76-.67-1.47-1.4-2.13-2.17-.66-.78-1.27-1.59-1.82-2.45-.55-.93-1.05-1.88-1.5-2.85-.46-.98-.87-1.97-1.23-2.99a33.955 33.955 0 01-1.56-6.25 92.89 92.89 0 01-.89-7.48c-.09-1.25-.16-2.5-.21-3.76-.05-1.25-.07-2.5-.06-3.76v-45.5a3.866 3.866 0 011.2-2.65c.37-.34.8-.61 1.27-.78.46-.18.96-.26 1.46-.24h17.15c.48.01.95.1 1.39.29.45.18.85.44 1.2.77s.63.72.83 1.15c.21.44.33.9.36 1.38v40.45c0 2.32.06 4.7.23 7.19.03.59.09 1.17.16 1.75.08.58.18 1.16.3 1.73.13.57.27 1.14.44 1.71.16.56.35 1.11.56 1.66.2.5.43.99.7 1.46.26.47.55.92.87 1.35.33.44.68.85 1.05 1.24.38.38.78.74 1.2 1.08.54.36 1.1.68 1.69.95.59.27 1.2.49 1.82.66.63.17 1.27.29 1.91.35.65.07 1.29.08 1.94.04.67.03 1.34.02 2.01-.04.67-.06 1.34-.17 1.99-.31a15.155 15.155 0 003.77-1.39 11.444 11.444 0 002.59-2c.38-.39.74-.8 1.06-1.25.33-.44.62-.9.88-1.38a18.134 18.134 0 001.37-3.12c.18-.54.34-1.09.47-1.64.13-.56.23-1.12.31-1.68a60.753 60.753 0 00.38-3.79c.04-.64.07-1.27.1-1.9.02-.64.03-1.27.03-1.91v-41.16c.02-.48.14-.95.34-1.39.2-.43.48-.83.82-1.16.35-.33.76-.6 1.2-.78.45-.18.92-.28 1.4-.28h17.18m371.76 65.23c.49.01.98.11 1.43.3.46.19.87.47 1.22.82.34.35.62.76.81 1.21.19.46.29.95.29 1.44v12.2a3.825 3.825 0 01-1.1 2.66c-.35.35-.76.63-1.22.82-.45.19-.94.29-1.43.3h-63.92c-.48-.01-.96-.11-1.4-.29-.45-.19-.86-.46-1.2-.8a3.822 3.822 0 01-1.13-2.58v-18c.01-.48.06-.95.16-1.42s.24-.92.42-1.36c.18-.44.41-.86.67-1.26.27-.4.57-.77.9-1.11l.85-.84 4.66-4.51 31.89-31c.04-.06.08-.11.11-.18.03-.06.06-.12.08-.19.02-.06.04-.13.05-.2.01-.06.02-.13.02-.2 0-.16-.03-.32-.09-.48-.06-.15-.15-.29-.26-.41-.11-.12-.24-.22-.39-.3-.14-.07-.3-.12-.46-.14H835c-.49 0-.97-.1-1.42-.29a3.81 3.81 0 01-1.21-.8 3.97 3.97 0 01-.83-1.2c-.19-.45-.3-.93-.31-1.42v-12.38c.01-.49.12-.97.31-1.42.2-.45.48-.85.83-1.2.34-.34.76-.61 1.21-.8.45-.19.93-.29 1.42-.29h61.97c.49.01.98.11 1.44.3.46.19.87.47 1.22.82s.63.76.82 1.22c.19.46.29.95.3 1.44v17.01a7.83 7.83 0 01-.21 1.53 7.663 7.663 0 01-1.3 2.78c-.31.42-.66.8-1.05 1.14l-2.14 2-35.67 33.91-.43.41-.54.51c-.06.06-.11.13-.15.2-.05.08-.08.15-.11.23-.04.08-.06.16-.08.25a1.435 1.435 0 00.06.71 1.34 1.34 0 00.58.7c.13.08.28.14.43.17h37.77m472.52-106.43c.48.02.96.13 1.4.32.44.2.84.48 1.17.83.34.34.6.75.78 1.2.18.45.27.93.27 1.41v118.7c0 .49-.09.97-.28 1.43-.18.45-.45.86-.8 1.21-.34.35-.74.63-1.19.83-.45.19-.93.3-1.42.31h-5.64c-.49-.01-.97-.11-1.42-.31-.45-.19-.86-.47-1.2-.82-.35-.35-.62-.76-.8-1.22-.18-.45-.27-.94-.27-1.43V81.57c0-.48.09-.96.27-1.41.19-.44.45-.85.78-1.2.34-.34.74-.62 1.18-.82.44-.2.91-.31 1.39-.33h5.84m-28.56 48.18c.63.73 1.22 1.5 1.77 2.29.55.8 1.05 1.62 1.5 2.48a25.97 25.97 0 012.16 5.36c.3 1.04.56 2.1.79 3.16.22 1.07.41 2.14.56 3.22.14 1.07.25 2.16.32 3.24.07 1.09.1 2.17.09 3.26v51.35c0 .48-.1.96-.29 1.41-.18.45-.45.85-.79 1.2-.34.34-.74.62-1.19.82-.44.19-.92.3-1.4.31h-5.71c-.49-.01-.97-.12-1.42-.31-.44-.2-.85-.48-1.19-.83-.34-.35-.61-.76-.79-1.22-.18-.45-.27-.93-.27-1.42v-50c.08-1.37.05-2.74-.09-4.1-.15-1.37-.4-2.71-.76-4.04a25.02 25.02 0 00-1.42-3.85c-.57-1.24-1.25-2.44-2.02-3.57-2.85-3.8-7.45-5.71-13.58-5.71-.94-.03-1.88 0-2.82.08-.94.07-1.88.2-2.8.38a26.196 26.196 0 00-5.38 1.69c-.74.35-1.47.74-2.16 1.18-.7.44-1.36.92-2 1.44-.63.53-1.23 1.09-1.8 1.69-.56.59-1.09 1.23-1.57 1.89-.5.72-.97 1.46-1.41 2.22-.43.77-.83 1.55-1.19 2.35s-.68 1.62-.97 2.45c-.28.83-.53 1.68-.73 2.53-.24 1-.46 2.01-.64 3.02-.18 1.01-.33 2.03-.45 3.05s-.2 2.05-.26 3.08c-.05 1.02-.07 2.05-.06 3.08v41.1c0 .49-.09.98-.27 1.43-.19.45-.46.87-.8 1.22s-.75.63-1.2.82c-.45.2-.93.3-1.42.31h-5.69a3.749 3.749 0 01-2.56-1.11 3.749 3.749 0 01-1.11-2.56v-77.67c0-.48.1-.96.29-1.41.18-.45.45-.85.79-1.2.34-.34.74-.62 1.19-.82.44-.19.92-.3 1.4-.31h4.72c.48.01.96.12 1.4.31a3.75 3.75 0 011.99 2.01c.19.44.29.92.3 1.4v5.15c.03.15.08.3.16.44a1.374 1.374 0 00.69.59c.15.05.3.08.46.08.09.01.19 0 .28-.01.09-.02.18-.04.27-.07.08-.04.16-.08.24-.14a.91.91 0 00.21-.18l.19-.26.43-.58c.34-.43.71-.86 1.09-1.29.42-.46.86-.91 1.32-1.34.45-.43.92-.84 1.41-1.24.48-.4.98-.78 1.49-1.14.5-.37 1.03-.71 1.56-1.04a31.48 31.48 0 013.86-2.02 31.073 31.073 0 018.38-2.33c1.44-.19 2.9-.28 4.35-.27 1.13-.03 2.27.01 3.4.09a34.444 34.444 0 019.9 2.27c.89.35 1.75.75 2.59 1.2.84.45 1.66.94 2.44 1.48s1.54 1.13 2.25 1.76c.72.63 1.4 1.29 2.04 2m-81.09 61.06a8.536 8.536 0 013.52.67c.55.24 1.08.54 1.57.89.49.34.94.74 1.35 1.19.79.85 1.42 1.83 1.85 2.91.42 1.08.64 2.23.64 3.38 0 1.16-.22 2.31-.64 3.39a9.358 9.358 0 01-1.85 2.91l-.2.2c-1.7 1.68-4 2.61-6.39 2.61a9.092 9.092 0 01-6.37-2.64 9.076 9.076 0 01-2.69-6.35 9.12 9.12 0 012.56-6.41c.41-.45.87-.86 1.37-1.21.49-.36 1.03-.66 1.59-.89a8.536 8.536 0 013.58-.65"/></g></g></g><path id="Layer" class="shp0" d="M225.44 113.12c.41.86.62 1.81.62 2.77 0 .95-.21 1.9-.62 2.76-.41.87-1 1.63-1.74 2.24-.74.61-1.6 1.05-2.53 1.28l-18.85 3.63c-.62.17-1.21.43-1.75.77-.55.34-1.04.77-1.46 1.25-.41.49-.76 1.04-1.01 1.63-.26.59-.43 1.21-.5 1.85-.19 3.33-3.71 77.66-8.19 96.94-.18.69-.47 1.34-.87 1.93-.39.6-.88 1.12-1.44 1.55-.57.44-1.2.78-1.87 1-.67.23-1.38.35-2.09.35h-.15c-7.38-.19-14.35-.33-21.43-.45-.2 0-.41-.04-.6-.12-.19-.08-.36-.19-.5-.34-.15-.14-.26-.31-.34-.5-.08-.19-.12-.4-.12-.6 0 0 1.37-21.03 2.5-47.82 1.33-31.56 2.38-72.01.23-95.79-.01-.15-.02-.31-.04-.46a7.258 7.258 0 00-.17-.91c-.03-.15-.07-.3-.12-.45-.15-.37-.35-.72-.6-1.03-.24-.31-.54-.59-.87-.81-.33-.23-.69-.4-1.07-.52a3.927 3.927 0 00-2.41.02c-.2.06-.39.14-.58.23a5.84 5.84 0 00-.85.57c-.11.08-.21.17-.31.25-.1.09-.2.18-.3.28-.09.09-.19.18-.28.28 0 0-24.94 25.49-30.2 101.12-.01.17-.02.34-.02.5 0 .17 0 .34.02.51.01.16.03.33.06.5.03.16.06.33.1.49.12.42.3.81.53 1.18.23.36.52.69.84.97.33.28.7.51 1.1.69.39.17.81.29 1.24.34l13 1.79c.27.03.53.11.77.23.24.13.46.29.64.49s.33.43.43.68c.1.25.15.52.16.79 0 0-.59 12.74-3.06 35.43-.03.24-.1.48-.21.69-.12.22-.27.42-.45.58-.18.16-.4.29-.62.37-.23.09-.48.13-.72.13l-10.69-.1H99.44c-.24 0-.48-.04-.71-.12-.23-.09-.44-.21-.62-.37-.19-.16-.34-.36-.45-.57-.12-.22-.19-.45-.22-.69-.28-2.58-.9-8.32-1.7-16.58-1.73-18.94-1.28-22.56-1.26-22.85.02-.29.07-.58.16-.86a3.774 3.774 0 01.86-1.51c.2-.21.42-.41.66-.57a20.37 20.37 0 003.68-3.26c1.1-1.23 2.03-2.59 2.8-4.04.77-1.46 1.35-3 1.75-4.6.39-1.6.59-3.23.59-4.88v-.88c-.92-25.44-1.36-54.45 0-77.37v-.3c.02-1-.36-1.98-1.06-2.7a3.75 3.75 0 00-2.66-1.16c-1-.02-1.97.36-2.7 1.05-.72.7-1.14 1.66-1.16 2.66-.95 15.66-1.04 34.29-.71 52.66h-.02a4.48 4.48 0 01-1.27 3.19c-.82.85-1.96 1.34-3.15 1.35-1.18.02-2.33-.43-3.18-1.26a4.614 4.614 0 01-1.38-3.15c-.32-18.23-.25-36.7.68-52.33v-.3c-.03-.97-.43-1.9-1.12-2.59a3.76 3.76 0 00-2.59-1.09 3.776 3.776 0 00-3.86 3.53c-.96 15.76-1.05 34.46-.71 52.92h-.01c.02 1.19-.43 2.34-1.26 3.2-.83.85-1.96 1.34-3.16 1.36-1.19.02-2.34-.43-3.19-1.26a4.527 4.527 0 01-1.38-3.15c-.33-18.33-.26-36.9.67-52.62v-.3c.02-1-.36-1.98-1.06-2.7a3.75 3.75 0 00-2.66-1.16c-1-.02-1.97.36-2.7 1.05-.72.7-1.14 1.66-1.16 2.66-1.43 23.57-.94 53.7.06 79.77.09 1.66.38 3.31.87 4.9a19.85 19.85 0 002.02 4.54c.86 1.43 1.89 2.74 3.07 3.92 1.18 1.17 2.5 2.2 3.93 3.05a4.018 4.018 0 011.36 1.37c.17.28.3.57.39.88.1.31.15.64.17.96.07.4.07.89.07 1.29.77 15.67 1.72 30.51 2.16 37v.06c0 .28-.05.55-.16.81-.11.25-.26.48-.45.68-.2.19-.43.35-.69.46-.25.1-.52.16-.8.16h-.91c-10.87.15-20.94.33-31.94.61h-.15c-.71 0-1.42-.12-2.09-.35a6.435 6.435 0 01-3.31-2.55c-.39-.59-.69-1.24-.87-1.93-4.48-19.28-8.04-93.61-8.19-96.94-.07-.64-.24-1.26-.5-1.85-.25-.59-.6-1.14-1.01-1.63-.42-.48-.91-.91-1.46-1.25-.54-.34-1.13-.6-1.75-.77l-18.81-3.63c-.93-.23-1.79-.67-2.53-1.28a6.462 6.462 0 01-1.74-2.24c-.41-.86-.62-1.81-.62-2.76 0-.96.21-1.91.62-2.77 1.39-3.61 37.41-69.29 102.82-109.62.69-.46 1.41-.87 2.16-1.23.75-.35 1.52-.65 2.32-.89.79-.24 1.6-.42 2.42-.54a17.139 17.139 0 014.96 0c.82.12 1.63.3 2.42.54.8.24 1.57.54 2.32.89.75.36 1.47.77 2.16 1.23 3.4 2.12 6.75 4.31 10.05 6.57 3.3 2.27 6.55 4.61 9.75 7.02 3.2 2.41 6.34 4.89 9.42 7.45 3.09 2.55 6.11 5.17 9.08 7.86.04.03.08.04.12.05.05 0 .09 0 .13-.02.04-.02.08-.05.11-.09.02-.03.04-.08.04-.12v-6.59c0-.53.1-1.05.3-1.53.21-.49.5-.93.87-1.3s.81-.66 1.3-.87c.48-.2 1-.3 1.53-.3.04 0 .08 0 .12-.01h.26c.04.01.08.01.12.01l19 2.29c.66.07 1.31.25 1.92.52.61.27 1.17.64 1.67 1.09.49.44.92.96 1.25 1.54.34.57.59 1.2.73 1.85a365.87 365.87 0 013.29 19.66c.46 3.3.87 6.59 1.23 9.9.37 3.3.69 6.61.96 9.92.02.18.06.35.1.53.05.17.11.34.18.5.08.17.16.32.25.48.1.15.2.29.32.43 18.25 22.78 28.08 40.93 28.79 42.78l.05-.08z"/></svg>